<?xml version="1.0" encoding="UTF-8" standalone="no"?>
<svg
   xmlns:dc="http://purl.org/dc/elements/1.1/"
   xmlns:cc="http://creativecommons.org/ns#"
   xmlns:rdf="http://www.w3.org/1999/02/22-rdf-syntax-ns#"
   xmlns:svg="http://www.w3.org/2000/svg"
   xmlns="http://www.w3.org/2000/svg"
   xmlns:sodipodi="http://sodipodi.sourceforge.net/DTD/sodipodi-0.dtd"
   xmlns:inkscape="http://www.inkscape.org/namespaces/inkscape"
   width="250"
   height="150"
   viewBox="0 0 250 150"
   version="1.1"
   preserveAspectRatio="xMidYMid"
   id="svg2"
   inkscape:version="0.91 r13725"
   sodipodi:docname="LABLES.svg">
  <metadata
     id="metadata24">
    <rdf:RDF>
      <cc:Work
         rdf:about="">
        <dc:format>image/svg+xml</dc:format>
        <dc:type
           rdf:resource="http://purl.org/dc/dcmitype/StillImage" />
        <dc:title></dc:title>
      </cc:Work>
    </rdf:RDF>
  </metadata>
  <defs
     id="defs22">
    <clipPath
       id="clipPath4210"
       clipPathUnits="userSpaceOnUse">
      <path
         inkscape:connector-curvature="0"
         id="path4212"
         d="m 0,1140 1776,0 L 1776,0 0,0 0,1140 Z" />
    </clipPath>
    <clipPath
       id="clipPath4218"
       clipPathUnits="userSpaceOnUse">
      <path
         inkscape:connector-curvature="0"
         id="path4220"
         d="m 10.5,1089.03 1753.52,0 0,-810.981 -1753.52,0 0,810.981 z" />
    </clipPath>
  </defs>
  <sodipodi:namedview
     pagecolor="#ffffff"
     bordercolor="#666666"
     borderopacity="1"
     objecttolerance="10"
     gridtolerance="10"
     guidetolerance="10"
     inkscape:pageopacity="0"
     inkscape:pageshadow="2"
     inkscape:window-width="1600"
     inkscape:window-height="837"
     id="namedview20"
     showgrid="false"
     inkscape:snap-bbox="true"
     inkscape:bbox-nodes="true"
     inkscape:snap-bbox-edge-midpoints="true"
     inkscape:zoom="1.4142136"
     inkscape:cx="4.6960706"
     inkscape:cy="154.66402"
     inkscape:window-x="-8"
     inkscape:window-y="-8"
     inkscape:window-maximized="1"
     inkscape:current-layer="svg2"
     units="px"
     width="250in" />
  <g
     id="g4159"
     transform="matrix(0.26685901,0,0,0.26685901,3.6094659,8.5582187)"
     style="fill:#4c91b7;fill-opacity:1">
    <path
       d="m 257.32869,23.233718 c 0.31207,-6.000374 2.46351,-10.903753 5.82542,-14.7290508 l 0,-5.0972444 -4.46836,0 c -9.0313,0 -16.67717,3.4612087 -21.12189,11.2820272 l -0.26006,0 0,-10.4214535 -23.16456,0 0,63.5547895 23.16929,0 0,-25.656446 c 0,-10.889568 3.18696,-19.192686 16.04355,-19.192686 1.39961,0.0095 2.70939,0.08984 3.97661,0.260064 l 0,0 z"
       id="path6"
       inkscape:connector-curvature="0"
       style="fill:#4c91b7;fill-opacity:1" />
    <path
       d="m 432.74861,23.002025 c 1.92447,-5.617372 5.04523,-10.620047 9.10222,-14.6344821 l 0,-4.9648485 -4.45891,0 c -9.03602,0 -16.67243,3.4612086 -21.1408,11.2772986 l -0.2506,0 0,-10.4119965 -23.17875,0 0,63.5547895 23.17875,0 0,-25.656446 c 0,-10.889568 3.19641,-19.192686 16.05301,-19.192686 l 0.69508,0.02837 0,0 z"
       id="path8"
       inkscape:connector-curvature="0"
       style="fill:#4c91b7;fill-opacity:1" />
    <path
       d="m 304.38127,20.618897 c -3.5747,-1.858271 -8.549,-3.097119 -12.50669,-3.097119 -2.65738,0 -7.24868,1.106452 -7.24868,4.335967 0,4.340697 7.24868,4.955392 10.45455,5.589001 10.79973,2.099422 18.97045,7.059542 18.97045,18.814412 0,16.719718 -15.66528,23.679963 -30.82934,23.679963 -9.30082,0 -18.45033,-2.605363 -26.35626,-7.314877 l 8.40242,-15.745662 c 4.70478,3.234244 12.60125,6.444846 18.33211,6.444846 2.93162,0 7.25813,-1.357059 7.25813,-4.827724 0,-4.955392 -7.25813,-5.215455 -14.52572,-7.068999 -7.24868,-1.858272 -14.49736,-5.31948 -14.49736,-16.719718 0,-15.6132664 14.49736,-22.5404121 28.78666,-22.5404121 7.38581,0 14.77634,1.1111804 21.50962,4.085361 l -7.74989,14.3649611 0,0 z"
       id="path10"
       inkscape:connector-curvature="0"
       style="fill:#4c91b7;fill-opacity:1" />
    <path
       d="m 511.33506,67.822786 -23.16929,0 0,-7.068999 -0.25533,0 c -4.07591,6.317179 -12.11423,9.163692 -19.74119,9.163692 -19.36763,0 -32.98078,-15.736206 -32.98078,-33.950107 0,-18.194988 13.372,-33.8129824 32.72072,-33.8129824 7.50874,0 15.41467,2.723574 20.25185,8.2936614 l 0,-6.1800545 23.16457,0 0.009,63.5547895 0,0 z M 459.1285,36.104496 c 0,8.047783 5.48498,14.242023 14.89455,14.242023 9.41902,0 14.88036,-6.184783 14.88036,-14.242023 0,-7.806633 -5.46134,-14.36969 -14.88036,-14.36969 -9.40957,0.0047 -14.89455,6.563057 -14.89455,14.36969 l 0,0 z"
       id="path12"
       inkscape:connector-curvature="0"
       style="fill:#4c91b7;fill-opacity:1" />
    <path
       d="m 389.16669,39.830497 -48.78318,0 c 0,9.158963 4.97903,14.109626 14.52573,14.109626 4.96485,0 8.52535,-1.602936 11.0787,-5.820693 l 22.28981,0 c -3.6929,14.993842 -18.34157,21.807506 -33.23612,21.807506 -21.63255,0 -37.80377,-11.901451 -37.80377,-33.817711 0,-21.183354 14.88036,-33.9406501 36.1441,-33.9406501 22.66335,0 35.79419,13.6320551 35.79419,35.3024371 l -0.009,2.359485 0,0 z m -21.5238,-13.01736 c -1.14901,-6.0713 -6.87986,-10.033722 -13.11193,-10.033722 -6.75692,0 -12.33646,3.45648 -13.75972,10.033722 l 26.87165,0 0,0 z"
       id="path14"
       inkscape:connector-curvature="0"
       style="fill:#4c91b7;fill-opacity:1" />
    <path
       d="m 140.44197,34.998044 c -0.0236,-0.548497 -0.0615,-1.082809 -0.10403,-1.626579 l 0,-0.0095 0,-0.0095 c -0.52012,-5.896349 -2.46824,-11.414423 -5.77341,-16.398186 -1.47527,-2.22236 -3.16331,-4.241399 -5.04996,-6.052386 -2.75667,-2.6526478 -5.94836,-4.846638 -9.54669,-6.5819708 -5.41405,-2.5864496 -11.39551,-3.89149549 -17.77889,-3.89149549 -0.62415,0 -1.27667,0.009457 -1.93392,0.033099 -4.482552,0.20332236 -8.818519,1.05443919 -12.894423,2.55335069 -4.109004,1.4847261 -7.688423,3.4470233 -10.615319,5.80178 -0.595782,0.4728428 -1.243577,1.0544393 -1.938656,1.6927766 l -0.501213,0.491757 -0.685622,0.728177 0.0047,0 0.0047,0 -0.321533,0.316805 -0.156038,0.170224 -0.818018,0.860573 c -0.605239,0.680894 -1.182107,1.361787 -1.721147,2.028496 l -0.0047,-0.0095 -0.01891,-0.01891 c -1.120637,1.361787 -2.156162,2.770858 -2.917439,4.038077 -0.515399,0.813289 -1.02134,1.650221 -1.50364,2.487152 l -6.681268,13.509117 0.0095,0.0095 -0.349903,0.685623 -0.737635,1.494183 c -1.465812,2.964723 -3.03565,5.91999 -4.789896,8.359859 -3.91041,4.288683 -8.331489,6.388105 -14.015059,6.388105 -0.397187,0 -0.803832,-0.01891 -1.219934,-0.04256 -3.423381,-0.137125 -6.359734,-0.945686 -8.965098,-2.487153 -0.278977,-0.165495 -0.548497,-0.335718 -0.808561,-0.51067 -2.127792,-1.4138 -3.759099,-3.229516 -4.979033,-5.494432 -1.375973,-2.567536 -1.98594,-5.191813 -1.900828,-7.972128 0.0047,-0.07566 0.0095,-0.141853 0.0095,-0.203323 0.184408,-4.425808 1.872457,-7.868103 5.272196,-10.842283 0.827475,-0.713993 1.692777,-1.319231 2.595906,-1.858272 0.127668,-0.07566 0.255336,-0.146581 0.383003,-0.212779 2.52498,-1.375973 5.399864,-2.061595 8.695578,-2.061595 l 1.026068,0.02837 c 5.234369,0.198594 9.272446,1.83463 12.492505,5.026318 L 62.304711,7.284733 C 59.888485,5.667611 57.160182,4.2774534 54.152903,3.1473593 54.03942,3.1048035 53.92121,3.0575192 53.802999,3.0196918 53.443639,2.8920242 53.089007,2.7596283 52.720189,2.6414176 49.523773,1.5727931 46.171318,0.9155417 42.719566,0.61765079 l 0,0 c -0.08511,-0.0141853 -0.17968,-0.0236421 -0.264792,-0.033099 -0.529584,-0.033099 -1.068624,-0.099297 -1.598208,-0.1229391 -0.576869,-0.0236421 -1.158465,-0.033099 -1.725876,-0.0378274 l -0.326262,0 C 32.454151,0.44742742 26.553074,1.7477449 21.157938,4.3247377 15.115008,7.2374488 10.216358,11.478848 6.5849258,16.94491 2.9629507,22.410971 0.98646811,28.477543 0.70276248,34.988588 c -0.0236421,0.557954 -0.0378274,1.11118 -0.0378274,1.654949 -0.004728,9.106951 3.31462742,17.116906 9.91551192,23.84073 6.889318,7.054813 15.849687,10.856468 26.606859,11.305669 0.690351,0.02837 1.371244,0.04728 2.052138,0.04728 6.085485,0 11.717042,-1.08281 16.767002,-3.248429 1.26249,-0.539041 2.487153,-1.17265 3.740186,-1.877186 0.680894,-0.392459 1.32396,-0.808561 1.962297,-1.253033 l 0.472843,-0.316805 0.794376,-0.543769 c 0.955142,-0.685622 1.848815,-1.427985 2.718845,-2.217632 l 0.30262,-0.288434 c 0.51067,-0.487028 1.02134,-0.978785 1.50364,-1.484726 l 1.810987,-2.047409 0.69035,-0.865302 0.321533,-0.472843 0.321534,-0.463386 c 2.690475,-4.520372 11.447522,-20.97057 11.447522,-20.97057 l 0,-0.0331 0.520127,-1.002427 0.435015,-0.784919 c 1.29086,-2.350028 2.222361,-4.019163 3.45648,-5.773409 l 0.0331,-0.05201 c 2.879612,-4.175201 7.830276,-7.149382 13.665159,-7.650595 9.78784,-0.84166 18.36521,5.589001 19.15485,14.364962 0.78492,8.77596 -6.51577,16.573137 -16.30361,17.419525 -2.03796,0.174952 -4.019166,0.03783 -5.886895,-0.373546 l -0.04728,0.01891 C 89.937639,50.426902 85.36525,45.187805 83.109791,42.847234 l -9.419027,17.320228 c 0,0 2.926896,2.950539 4.931749,4.425808 2.009582,1.470541 4.605488,2.917439 6.676539,3.81584 5.026318,2.146707 10.49238,3.432839 16.530578,3.432839 0.69981,0 0.55796,0 1.28614,-0.02837 10.74771,-0.4492 20.3275,-4.56766 27.23574,-11.622474 6.54414,-6.700181 10.09519,-14.350776 10.12829,-23.405714 l 0,-0.26952 c -0.005,-0.501214 -0.0189,-1.007155 -0.0378,-1.517826 l 0,0 z"
       id="path16"
       inkscape:connector-curvature="0"
       style="fill:#4c91b7;fill-opacity:1" />
    <path
       d="m 176.47258,69.969492 c -4.88446,0 -9.315,-0.567412 -13.29161,-1.702234 -3.9766,-1.134823 -7.37161,-2.926897 -10.18503,-5.385679 -2.82287,-2.458782 -4.99794,-5.589001 -6.52995,-9.385928 -1.53202,-3.796927 -2.29802,-8.374044 -2.29802,-13.70771 l 0,-35.5341297 22.35127,0 0,35.2504237 c 0,3.995521 0.95515,6.889319 2.8607,8.695578 1.91029,1.810988 4.33597,2.714117 7.27705,2.714117 3.00728,0 5.44715,-0.84166 7.32906,-2.529708 1.87246,-1.688049 2.81815,-4.487278 2.81815,-8.421329 l 0,-35.7090817 22.35127,0 0,35.0660157 c 0,5.522803 -0.78492,10.218131 -2.35003,14.081256 -1.56511,3.867853 -3.77328,7.026443 -6.61507,9.485225 -2.85597,2.458782 -6.29353,4.246127 -10.33634,5.385678 -4.0428,1.130094 -8.50171,1.697506 -13.38145,1.697506 l 0,0 z"
       id="path18"
       inkscape:connector-curvature="0"
       style="fill:#4c91b7;fill-opacity:1" />
  </g>
  <g
     transform="matrix(0.05490941,0,0,-0.05490941,149.43246,69.321745)"
     inkscape:label="edx_logo_final"
     id="g4204">
    <g
       id="g4206">
      <g
         clip-path="url(#clipPath4210)"
         id="g4208">
        <g
           id="g4214">
          <g
             id="g4216" />
          <g
             id="g4222">
            <g
               id="g4224"
               clip-path="url(#clipPath4218)">
              <g
                 id="g4226"
                 transform="translate(1703.9697,409.7188)">
                <path
                   inkscape:connector-curvature="0"
                   id="path4228"
                   style="fill:#00a0e3;fill-opacity:1;fill-rule:nonzero;stroke:none"
                   d="m 0,0 60.051,0 0,-131.67 -320.2,0 0,131.67 81.559,0 L 0,0 Z" />
              </g>
              <g
                 id="g4230"
                 transform="translate(1764.0205,1089.0288)">
                <path
                   inkscape:connector-curvature="0"
                   id="path4232"
                   style="fill:#00a0e3;fill-opacity:1;fill-rule:nonzero;stroke:none"
                   d="m 0,0 0,-128.48 -68.83,0 -178.601,0 -72.769,0 L -320.2,0 0,0 Z" />
              </g>
              <g
                 id="g4234"
                 transform="translate(1476.2197,690.4087)">
                <path
                   inkscape:connector-curvature="0"
                   id="path4236"
                   style="fill:#00a0e3;fill-opacity:1;fill-rule:nonzero;stroke:none"
                   d="m 0,0 227.75,-280.69 -178.59,0 -81.559,100.51 0,140.21 L 0,0 Z" />
              </g>
              <g
                 id="g4238"
                 transform="translate(1695.1904,960.5488)">
                <path
                   inkscape:connector-curvature="0"
                   id="path4240"
                   style="fill:#00a0e3;fill-opacity:1;fill-rule:nonzero;stroke:none"
                   d="m 0,0 -218.971,-270.14 -32.399,39.93 0,140.44 L -178.601,0 0,0 Z" />
              </g>
              <g
                 id="g4242"
                 transform="translate(1476.2197,690.4087)">
                <path
                   inkscape:connector-curvature="0"
                   id="path4244"
                   style="fill:#00a0e3;fill-opacity:1;fill-rule:nonzero;stroke:none"
                   d="m 0,0 -32.399,-39.97 0,79.9 L 0,0 Z" />
              </g>
              <g
                 id="g4246"
                 transform="translate(1443.8203,650.439)">
                <path
                   inkscape:connector-curvature="0"
                   id="path4248"
                   style="fill:#00a0e3;fill-opacity:1;fill-rule:nonzero;stroke:none"
                   d="M 0,0 0,-140.21 -56.851,-70.14 0,0 Z" />
              </g>
              <g
                 id="g4250"
                 transform="translate(1443.8203,730.3389)">
                <path
                   inkscape:connector-curvature="0"
                   id="path4252"
                   style="fill:#00a0e3;fill-opacity:1;fill-rule:nonzero;stroke:none"
                   d="m 0,0 0,-79.9 -56.851,-70.14 -0.009,0 -56.86,70.08 0,80.11 56.77,70.03 L 0,0 Z" />
              </g>
              <g
                 id="g4254"
                 transform="translate(1443.8203,870.7788)">
                <path
                   inkscape:connector-curvature="0"
                   id="path4256"
                   style="fill:#00a0e3;fill-opacity:1;fill-rule:nonzero;stroke:none"
                   d="M 0,0 0,-140.44 -56.95,-70.26 0,0 Z" />
              </g>
              <g
                 id="g4258"
                 transform="translate(1330.1006,650.3789)">
                <path
                   inkscape:connector-curvature="0"
                   id="path4260"
                   style="fill:#00a0e3;fill-opacity:1;fill-rule:nonzero;stroke:none"
                   d="M 0,0 56.859,-70.08 0,-140.23 0,0 Z" />
              </g>
              <g
                 id="g4262"
                 transform="translate(1330.1006,870.4888)">
                <path
                   inkscape:connector-curvature="0"
                   id="path4264"
                   style="fill:#00a0e3;fill-opacity:1;fill-rule:nonzero;stroke:none"
                   d="M 0,0 56.77,-69.97 0,-140 0,0 Z" />
              </g>
              <g
                 id="g4266"
                 transform="translate(1248.6904,409.7188)">
                <path
                   inkscape:connector-curvature="0"
                   id="path4268"
                   style="fill:#00a0e3;fill-opacity:1;fill-rule:nonzero;stroke:none"
                   d="m 0,0 0.01,0 81.4,0 0,-131.67 -140.64,0 L -59.23,0 0,0 Z" />
              </g>
              <g
                 id="g4270"
                 transform="translate(1330.1006,650.3789)">
                <path
                   inkscape:connector-curvature="0"
                   id="path4272"
                   style="fill:#00a0e3;fill-opacity:1;fill-rule:nonzero;stroke:none"
                   d="m 0,0 0,-140.23 -81.4,-100.43 -0.01,0 -59.231,0 -98.569,0 0,25.66 L -32.48,40.03 0,0 Z" />
              </g>
              <g
                 id="g4274"
                 transform="translate(1330.1006,730.4888)">
                <path
                   inkscape:connector-curvature="0"
                   id="path4276"
                   style="fill:#00a0e3;fill-opacity:1;fill-rule:nonzero;stroke:none"
                   d="M 0,0 0,-80.11 -32.48,-40.08 0,0 Z" />
              </g>
              <g
                 id="g4278"
                 transform="translate(1330.1006,870.4888)">
                <path
                   inkscape:connector-curvature="0"
                   id="path4280"
                   style="fill:#00a0e3;fill-opacity:1;fill-rule:nonzero;stroke:none"
                   d="m 0,0 0,-140 -32.48,-40.08 -206.73,254.77 0,15.37 166.13,0 L 0,0 Z" />
              </g>
              <g
                 id="g4282"
                 transform="translate(1330.1006,1089.0288)">
                <path
                   inkscape:connector-curvature="0"
                   id="path4284"
                   style="fill:#00a0e3;fill-opacity:1;fill-rule:nonzero;stroke:none"
                   d="m 0,0 0,-128.48 -73.08,0 -166.13,0 0,128.48 L 0,0 Z" />
              </g>
              <path
                 inkscape:connector-curvature="0"
                 id="path4286"
                 style="fill:#016aa3;fill-opacity:1;fill-rule:nonzero;stroke:none"
                 d="m 1189.46,278.049 -98.569,0 0,131.67 98.569,0 0,-131.67 z" />
              <g
                 id="g4288"
                 transform="translate(1070.0898,409.7188)">
                <path
                   inkscape:connector-curvature="0"
                   id="path4290"
                   style="fill:#016aa3;fill-opacity:1;fill-rule:nonzero;stroke:none"
                   d="m 0,0 20.801,0 0,-131.67 -82.481,0 0,98.38 c 9.55,10.44 18.41,21.561 26.481,33.29 L 0,0 Z" />
              </g>
              <g
                 id="g4292"
                 transform="translate(1090.8906,435.3789)">
                <path
                   inkscape:connector-curvature="0"
                   id="path4294"
                   style="fill:#016aa3;fill-opacity:1;fill-rule:nonzero;stroke:none"
                   d="m 0,0 0,-25.66 -20.801,0 L 0,0 Z" />
              </g>
              <g
                 id="g4296"
                 transform="translate(1090.8906,591.2988)">
                <path
                   inkscape:connector-curvature="0"
                   id="path4298"
                   style="fill:#8a8c8f;fill-opacity:1;fill-rule:nonzero;stroke:none"
                   d="m 0,0 0,-155.92 -20.801,-25.66 -35.199,0 C -20.721,-130.38 -0.2,-67.71 0,0" />
              </g>
              <g
                 id="g4300"
                 transform="translate(1090.8906,945.1787)">
                <path
                   inkscape:connector-curvature="0"
                   id="path4302"
                   style="fill:#8a8c8f;fill-opacity:1;fill-rule:nonzero;stroke:none"
                   d="m 0,0 0,-352.88 c 0,83.61 -30.98,159.59 -82.48,215.87 l 0,152.38 70.009,0 L 0,0 Z" />
              </g>
              <g
                 id="g4304"
                 transform="translate(1090.8906,960.5488)">
                <path
                   inkscape:connector-curvature="0"
                   id="path4306"
                   style="fill:#016aa3;fill-opacity:1;fill-rule:nonzero;stroke:none"
                   d="M 0,0 0,-15.37 -12.471,0 0,0 Z" />
              </g>
              <g
                 id="g4308"
                 transform="translate(1078.4199,960.5488)">
                <path
                   inkscape:connector-curvature="0"
                   id="path4310"
                   style="fill:#016aa3;fill-opacity:1;fill-rule:nonzero;stroke:none"
                   d="m 0,0 -70.01,0 0,128.48 82.481,0 L 12.471,0 0,0 Z" />
              </g>
              <g
                 id="g4312"
                 transform="translate(1090.8906,592.2988)">
                <path
                   inkscape:connector-curvature="0"
                   id="path4314"
                   style="fill:#8a8c8f;fill-opacity:1;fill-rule:nonzero;stroke:none"
                   d="m 0,0 0,-1 c -0.2,-67.71 -20.721,-130.38 -56,-181.58 l -26.48,0 0,398.45 C -30.98,159.59 0,83.61 0,0" />
              </g>
              <g
                 id="g4316"
                 transform="translate(1008.4102,409.7188)">
                <path
                   inkscape:connector-curvature="0"
                   id="path4318"
                   style="fill:#016aa3;fill-opacity:1;fill-rule:nonzero;stroke:none"
                   d="M 0,0 26.48,0 C 18.41,-11.729 9.55,-22.85 0,-33.29 L 0,0 Z" />
              </g>
              <g
                 id="g4320"
                 transform="translate(1008.4102,376.4287)">
                <path
                   inkscape:connector-curvature="0"
                   id="path4322"
                   style="fill:#8a8c8f;fill-opacity:1;fill-rule:nonzero;stroke:none"
                   d="m 0,0 0,-98.38 -46.82,0 0,56.75 C -29.81,-29.399 -14.14,-15.439 0,0" />
              </g>
              <g
                 id="g4324"
                 transform="translate(1008.4102,409.7188)">
                <path
                   inkscape:connector-curvature="0"
                   id="path4326"
                   style="fill:#8a8c8f;fill-opacity:1;fill-rule:nonzero;stroke:none"
                   d="m 0,0 0,-33.29 c -14.14,-15.439 -29.81,-29.399 -46.82,-41.63 l 0,256.5 0,1 0,257.5 C -29.81,427.85 -14.14,413.89 0,398.45 L 0,0 Z" />
              </g>
              <g
                 id="g4328"
                 transform="translate(1008.4102,960.5488)">
                <path
                   inkscape:connector-curvature="0"
                   id="path4330"
                   style="fill:#8a8c8f;fill-opacity:1;fill-rule:nonzero;stroke:none"
                   d="m 0,0 0,-152.38 c -14.14,15.44 -29.81,29.4 -46.82,41.63 L -46.82,0 0,0 Z" />
              </g>
              <path
                 inkscape:connector-curvature="0"
                 id="path4332"
                 style="fill:#8a8c8f;fill-opacity:1;fill-rule:nonzero;stroke:none"
                 d="m 1008.41,960.549 -46.82,0 0,128.48 46.82,0 0,-128.48 z" />
              <g
                 id="g4334"
                 transform="translate(961.5898,591.2988)">
                <path
                   inkscape:connector-curvature="0"
                   id="path4336"
                   style="fill:#8a8c8f;fill-opacity:1;fill-rule:nonzero;stroke:none"
                   d="m 0,0 0,-256.5 c -49.66,-35.72 -110.66,-56.68 -177.64,-56.68 -91.67,0 -174.18,39.26 -231.6,101.89 23.34,26.3 42.261,56.73 55.75,90.1 4.77,11.78 8.86,23.93 12.23,36.4 30.77,-58.05 91.821,-97.59 162.11,-97.59 C -78.2,-182.38 -0.51,-100.82 0,0" />
              </g>
              <g
                 id="g4338"
                 transform="translate(961.5898,849.7988)">
                <path
                   inkscape:connector-curvature="0"
                   id="path4340"
                   style="fill:#8a8c8f;fill-opacity:1;fill-rule:nonzero;stroke:none"
                   d="m 0,0 0,-257.5 c 0,101.28 -77.87,183.38 -179.15,183.38 -70.289,0 -131.34,-39.54 -162.11,-97.59 -12.909,47.77 -36.409,90.91 -67.98,126.5 57.42,62.63 139.93,101.89 231.6,101.89 C -110.66,56.68 -49.66,35.72 0,0" />
              </g>
              <path
                 inkscape:connector-curvature="0"
                 id="path4342"
                 style="fill:#8a8c8f;fill-opacity:1;fill-rule:nonzero;stroke:none"
                 d="m 961.59,960.549 -85.41,0 0,128.48 85.41,0 0,-128.48 z" />
              <g
                 id="g4344"
                 transform="translate(631.6201,592.2988)">
                <path
                   inkscape:connector-curvature="0"
                   id="path4346"
                   style="fill:#b72667;fill-opacity:1;fill-rule:nonzero;stroke:none"
                   d="m 0,0 c 0,-17.32 -1.33,-34.31 -3.9,-50.87 l -21.51,0 c -4.66,16.15 -7.15,33.22 -7.15,50.87 0,18.74 2.81,36.83 8.05,53.86 l 20.13,0 C -1.49,36.36 0,18.36 0,0" />
              </g>
              <g
                 id="g4348"
                 transform="translate(627.2402,646.1587)">
                <path
                   inkscape:connector-curvature="0"
                   id="path4350"
                   style="fill:#b72667;fill-opacity:1;fill-rule:nonzero;stroke:none"
                   d="m 0,0 -20.13,0 c 3.4,11.13 7.85,21.81 13.22,31.93 C -4.09,21.5 -1.78,10.84 0,0" />
              </g>
              <g
                 id="g4352"
                 transform="translate(620.3301,506.5088)">
                <path
                   inkscape:connector-curvature="0"
                   id="path4354"
                   style="fill:#8a8c8f;fill-opacity:1;fill-rule:nonzero;stroke:none"
                   d="m 0,0 c -3.37,-12.47 -7.46,-24.62 -12.23,-36.4 l -113.69,0 c -4.91,11.63 -9.15,23.62 -12.64,35.921 5.72,11.159 10.35,23.009 13.74,35.399 l 110.7,0 C -10.6,22.71 -5.85,11.021 0,0" />
              </g>
              <g
                 id="g4356"
                 transform="translate(494.4102,470.1084)">
                <path
                   inkscape:connector-curvature="0"
                   id="path4358"
                   style="fill:#77202d;fill-opacity:1;fill-rule:nonzero;stroke:none"
                   d="M 0,0 113.69,0 C 100.2,-33.369 81.28,-63.8 57.94,-90.1 33.8,-63.8 14.1,-33.369 0,0" />
              </g>
              <g
                 id="g4360"
                 transform="translate(620.3301,678.0889)">
                <path
                   inkscape:connector-curvature="0"
                   id="path4362"
                   style="fill:#77202d;fill-opacity:1;fill-rule:nonzero;stroke:none"
                   d="m 0,0 c -5.37,-10.12 -9.82,-20.8 -13.22,-31.93 l -112.44,0 c -3.31,11.31 -7.64,22.15 -12.9,32.41 13.55,47.58 38.04,90.55 70.58,126.02 C -36.41,90.91 -12.91,47.77 0,0" />
              </g>
              <g
                 id="g4364"
                 transform="translate(494.6704,646.1587)">
                <path
                   inkscape:connector-curvature="0"
                   id="path4366"
                   style="fill:#77202d;fill-opacity:1;fill-rule:nonzero;stroke:none"
                   d="m 0,0 112.44,0 c -5.24,-17.03 -8.05,-35.12 -8.05,-53.86 0,-17.65 2.49,-34.72 7.15,-50.87 l -110.7,0 c 4.45,16.15 6.82,33.22 6.82,50.87 C 7.66,-35.12 4.99,-17.03 0,0" />
              </g>
              <g
                 id="g4368"
                 transform="translate(324.6899,906.479)">
                <path
                   inkscape:connector-curvature="0"
                   id="path4370"
                   style="fill:#b72667;fill-opacity:1;fill-rule:nonzero;stroke:none"
                   d="m 0,0 c 91.67,0 172.15,-39.26 227.66,-101.89 -32.54,-35.47 -57.03,-78.44 -70.58,-126.02 -29.62,57.79 -88.5,97.11 -158.59,97.11 -82.54,0 -152.34,-54.53 -175.33,-129.52 l -132.74,0 C -284.05,-112.46 -155.16,0 0,0" />
              </g>
              <g
                 id="g4372"
                 transform="translate(552.3501,380.0088)">
                <path
                   inkscape:connector-curvature="0"
                   id="path4374"
                   style="fill:#b72667;fill-opacity:1;fill-rule:nonzero;stroke:none"
                   d="m 0,0 c -55.51,-62.63 -135.99,-101.89 -227.66,-101.89 -156.2,0 -285.78,113.98 -310.09,263.31 l 132.35,0 c 22.05,-76.53 92.6,-132.51 176.23,-132.51 54.34,0 101.95,23.64 134.39,61.19 l 36.84,0 C -43.84,56.73 -24.14,26.3 0,0" />
              </g>
              <g
                 id="g4376"
                 transform="translate(502.3301,592.2988)">
                <path
                   inkscape:connector-curvature="0"
                   id="path4378"
                   style="fill:#77202d;fill-opacity:1;fill-rule:nonzero;stroke:none"
                   d="m 0,0 c 0,-17.65 -2.37,-34.72 -6.82,-50.87 l -21.64,0 c -2.7,16.56 -4.1,33.55 -4.1,50.87 0,18.36 1.58,36.36 4.61,53.86 l 20.29,0 C -2.67,36.83 0,18.74 0,0" />
              </g>
              <g
                 id="g4380"
                 transform="translate(473.8701,541.4287)">
                <path
                   inkscape:connector-curvature="0"
                   id="path4382"
                   style="fill:#8a8c8f;fill-opacity:1;fill-rule:nonzero;stroke:none"
                   d="M 0,0 21.64,0 C 18.25,-12.39 13.62,-24.24 7.9,-35.399 4.6,-23.86 1.96,-12.05 0,0" />
              </g>
              <g
                 id="g4384"
                 transform="translate(494.6704,646.1587)">
                <path
                   inkscape:connector-curvature="0"
                   id="path4386"
                   style="fill:#8a8c8f;fill-opacity:1;fill-rule:nonzero;stroke:none"
                   d="m 0,0 -20.29,0 c 1.89,11.01 4.36,21.83 7.39,32.41 C -7.64,22.15 -3.31,11.31 0,0" />
              </g>
              <g
                 id="g4388"
                 transform="translate(147.8501,646.1587)">
                <path
                   inkscape:connector-curvature="0"
                   id="path4390"
                   style="fill:#b72667;fill-opacity:1;fill-rule:nonzero;stroke:none"
                   d="m 0,0 326.53,0 c -3.03,-17.5 -4.61,-35.5 -4.61,-53.86 0,-17.32 1.4,-34.309 4.1,-50.87 l -326.92,0 c -4.66,16.15 -7.15,33.22 -7.15,50.87 0,18.74 2.81,36.83 8.05,53.86" />
              </g>
              <g
                 id="g4392"
                 transform="translate(15.1104,646.1587)">
                <path
                   inkscape:connector-curvature="0"
                   id="path4394"
                   style="fill:#b72667;fill-opacity:1;fill-rule:nonzero;stroke:none"
                   d="m 0,0 132.74,0 c -5.24,-17.03 -8.05,-35.12 -8.05,-53.86 0,-17.65 2.49,-34.72 7.15,-50.87 l -132.35,0 c -2.7,16.561 -4.1,33.55 -4.1,50.87 0,18.36 1.58,36.36 4.61,53.86" />
              </g>
            </g>
          </g>
        </g>
      </g>
    </g>
  </g>
  <g
     id="g4507"
     transform="matrix(0.21469014,0,0,0.21469014,112.4443,25.665001)">
    <path
       id="path4172"
       d="m -424.15456,176.86741 148.60032,0 c 16.15104,0 29.24288,13.09184 29.24288,29.24288 l 0,146.31424 c 0,44.42624 -36.01664,80.44288 -80.44288,80.44288 l -95.45216,0 c -44.23936,0 -80.10496,-35.8656 -80.10496,-80.10496 l 0,-97.73824 c 0,-43.16672 34.99008,-78.1568 78.1568,-78.1568"
       inkscape:connector-curvature="0"
       style="fill:#4fb74c" />
    <path
       id="path4174"
       d="m -297.51136,225.50741 0,99.22048 c 0,32.86016 -26.63936,59.49952 -59.49952,59.49952 l -32.73984,0 c -33.88928,0 -61.36064,-27.47136 -61.36064,-61.35808 l 0,-70.6176 c 0,-14.7712 11.97312,-26.74432 26.74432,-26.74432 l 9.09568,0 0,96.46592 c 0,16.00256 12.97152,28.97408 28.97408,28.97408 l 24.26624,0 c 15.83872,0 28.67968,-12.84096 28.67968,-28.67968 l 0,-70.45376 c 0,-14.528 11.77856,-26.30656 26.30656,-26.30656 l 9.53344,0"
       inkscape:connector-curvature="0"
       style="fill:#ffffff" />
    <path
       sodipodi:nodetypes="scsscsssscsscsssscsssssssscsssccsssssscccssssscsssssscssscscsscsssscssscsscsssccsscsssscscc"
       inkscape:connector-curvature="0"
       id="path4503"
       d="m 102.38836,417.05195 c -4.314917,-4.31488 -4.944847,-9.32294 -1.34639,-10.70378 1.3421,-0.51503 5.80115,-0.93639 9.90901,-0.93639 9.50728,0 15.36273,-4.63398 21.68759,-17.16347 l 4.5625,-9.03824 -18.63465,-41.81488 c -10.24906,-22.99818 -18.41324,-42.01303 -18.14263,-42.25523 1.92101,-1.71934 10.53141,-1.90313 14.24285,-0.30401 3.89723,1.67917 6.1849,5.81883 17.20792,31.13872 6.99224,16.06114 13.30002,29.39172 14.01731,29.62352 0.71728,0.23179 7.45206,-13.0673 14.96617,-29.55356 12.1084,-26.56633 14.17833,-30.15499 18.20241,-31.5578 6.19463,-2.15946 14.10966,-0.49865 13.1988,2.76949 -0.38048,1.36523 -11.34264,25.63335 -24.36036,53.92916 -24.64922,53.57858 -29.74205,62.00842 -40.56454,67.14401 -2.90807,1.37997 -8.8586,2.50904 -13.22341,2.50904 -6.36901,0 -8.68371,-0.74769 -11.72258,-3.78658 z m -303.95362,-31.50502 c -8.11751,-2.10932 -17.42065,-8.20861 -21.29369,-13.96049 -5.81333,-8.63339 -7.80565,-16.73432 -7.80565,-31.73834 0,-22.62863 5.92427,-34.85271 20.29953,-41.88587 11.26077,-5.5094 27.32637,-5.8706 37.00894,-0.83209 3.57221,1.85886 6.86968,3.37975 7.32772,3.37975 0.45804,0 0.8328,-9.68013 0.8328,-21.51143 0,-20.09441 0.22863,-21.77493 3.47101,-25.51172 2.07473,-2.39109 5.33276,-4.13228 8.09905,-4.32838 l 4.62802,-0.32808 0.47436,50.90827 c 0.31071,33.34426 -0.11787,53.66325 -1.24213,58.89339 -3.68446,17.13987 -15.98162,26.52007 -36.15234,27.57675 -5.99656,0.31414 -13.03797,0.0164 -15.64762,-0.66176 z m 28.66392,-19.4807 c 6.31143,-6.04672 8.1492,-13.1486 7.48871,-28.93941 -0.59575,-14.24361 -2.48964,-18.47014 -11.18067,-24.95154 -5.91225,-4.40911 -20.67486,-4.3773 -26.74191,0.0576 -7.46658,5.45796 -10.42794,13.58885 -10.36978,28.47186 0.0592,15.14721 2.69651,21.39981 11.56858,27.42708 4.49665,3.0548 6.79783,3.52012 14.9309,3.01918 8.07639,-0.49747 10.36532,-1.31112 14.30417,-5.08478 z m 67.09871,19.42621 c -18.56292,-5.16687 -26.87588,-14.77512 -30.06723,-34.75213 -5.49955,-34.42574 11.04234,-57.04667 41.625332,-56.92242 25.137979,0.10219 38.578828,13.20862 38.578828,37.61912 0,8.91741 -0.477566,10.87214 -2.983935,12.2135 -1.749547,0.93633 -14.832059,1.59695 -31.624838,1.59695 l -28.640897,0 0,4.3999 c 0,5.10514 5.11784,13.24864 11.12042,17.69481 6.9274,5.13121 19.242386,5.28785 29.960151,0.38109 4.934965,-2.2593 10.269059,-5.28103 11.853526,-6.71497 2.712747,-2.45499 3.007768,-2.43357 5.055545,0.36691 8.112357,11.09432 -6.421014,23.81046 -28.397408,24.84664 -6.518307,0.30734 -13.934084,-0.021 -16.479494,-0.7294 z m 32.214035,-60.75501 c -0.61222,-19.67994 -35.231545,-22.26245 -43.187305,-3.22165 -4.23566,10.13737 -4.58573,9.97598 20.614988,9.50319 l 22.754451,-0.42692 z m 35.201887,57.49153 c -1.846659,-1.72042 -3.73477,-4.67079 -4.195799,-6.55637 -0.461012,-1.88557 -0.642971,-21.13051 -0.404334,-42.76653 l 0.433877,-39.3382 4.628024,0.45517 c 2.545414,0.25035 6.398615,1.73071 8.562664,3.28969 3.628279,2.61382 4.288898,2.64804 8.484712,0.43952 11.7002465,-6.15859 31.571144,-5.17768 42.731273,2.10941 l 5.785031,3.77737 5.850675,-3.8718 c 12.731509,-8.4253 36.609611,-8.26243 48.772467,0.33268 11.426753,8.07491 12.416631,11.96074 12.974931,50.93259 l 0.49171,34.32452 -4.523706,0 c -2.830783,0 -6.04573,-1.52204 -8.590761,-4.06705 l -4.067046,-4.06706 0,-26.06465 c 0,-35.10521 -2.732682,-41.2409 -18.9672,-42.5872 -10.400566,-0.86249 -18.521614,2.43718 -22.64548,9.2011 -2.851492,4.67702 -3.113845,7.734 -3.119115,36.34569 l -0.0062,31.23917 -3.770667,0 c -2.073873,0 -5.718437,-1.67382 -8.099043,-3.71958 l -4.328375,-3.71958 -0.771338,-29.13937 c -0.86818,-32.79729 -1.759859,-35.77487 -11.6952652,-39.05386 -7.4802498,-2.4687 -19.8777708,-1.1698 -24.0148078,2.51606 -6.568263,5.85192 -7.484827,11.11568 -7.484827,42.98462 l 0,30.13171 -4.337138,0 c -2.385422,0 -5.848034,-1.40761 -7.694692,-3.12805 z"
       style="fill:#4fb74c;fill-opacity:1" />
  </g>
  <g
     id="g4884"
     transform="matrix(0.29504719,0,0,0.29504719,95.425164,16.516343)">
    <path
       inkscape:connector-curvature="0"
       d="m 109.88621,198.03752 -5.81214,0 0,-21.39921 -21.810145,0 0,21.39921 -5.81214,0 0,-43.70835 5.81214,0 0,17.14287 21.810145,0 0,-17.14287 5.81214,0 0,43.70835 z"
       id="path4616"
       style="font-style:normal;font-variant:normal;font-weight:normal;font-stretch:normal;font-size:medium;line-height:100%;font-family:'Vladimir Script';-inkscape-font-specification:'Vladimir Script, Normal';text-align:center;letter-spacing:0px;word-spacing:0px;writing-mode:lr-tb;text-anchor:middle;fill:#b23228;fill-opacity:1;stroke:none;stroke-width:0.69999999;stroke-linecap:butt;stroke-linejoin:miter;stroke-miterlimit:4;stroke-dasharray:none;stroke-opacity:1" />
    <path
       inkscape:connector-curvature="0"
       d="m 155.03307,198.03752 -5.78282,0 0,-35.01957 -21.72217,35.01957 -5.87079,0 0,-43.70835 5.78274,0 0,34.49117 21.45793,-34.49117 6.13511,0 0,43.70835 z"
       id="path4618"
       style="font-style:normal;font-variant:normal;font-weight:normal;font-stretch:normal;font-size:medium;line-height:100%;font-family:'Vladimir Script';-inkscape-font-specification:'Vladimir Script, Normal';text-align:center;letter-spacing:0px;word-spacing:0px;writing-mode:lr-tb;text-anchor:middle;fill:#b23228;fill-opacity:1;stroke:none;stroke-width:0.69999999;stroke-linecap:butt;stroke-linejoin:miter;stroke-miterlimit:4;stroke-dasharray:none;stroke-opacity:1" />
    <path
       id="path4705"
       d="m 166.75476,154.0515 0,44.24349 15.69535,0 c 3.07063,0 5.59567,-0.27465 7.5767,-0.82954 2.00086,-0.55498 3.83317,-1.47984 5.49725,-2.78735 1.40656,-1.08954 2.53047,-2.47497 3.3625,-4.15887 0.83204,-1.68387 1.23882,-3.63013 1.23882,-5.82909 0,-3.07063 -0.85361,-5.60902 -2.57714,-7.60988 -1.72352,-2.02067 -4.08761,-3.33458 -7.07896,-3.9487 l 0,-0.23219 c 1.78288,-0.89149 3.21079,-2.07351 4.28057,-3.53948 1.06977,-1.48579 1.60381,-3.27569 1.60381,-5.37559 0,-1.86222 -0.36188,-3.46207 -1.09504,-4.78934 -0.73298,-1.34716 -1.915,-2.44428 -3.53948,-3.29614 -1.46602,-0.75274 -2.99666,-1.25535 -4.60132,-1.49326 -1.60466,-0.23785 -4.02679,-0.35395 -7.25593,-0.35395 l -13.10712,0 z m 5.88437,5.02163 7.01259,0 c 1.96126,0 3.60585,0.0719 4.93313,0.21011 1.32733,0.11892 2.46461,0.44965 3.39569,0.98442 0.79227,0.45589 1.35769,1.0478 1.71447,1.78079 0.35621,0.73298 0.54196,1.62912 0.54196,2.69889 0,1.2877 -0.20104,2.41155 -0.59729,3.36251 -0.3766,0.93108 -1.02668,1.69527 -1.95776,2.28956 -0.93108,0.59424 -1.94111,0.98534 -3.0307,1.18355 -1.08954,0.17839 -2.55981,0.2656 -4.40221,0.2656 l -7.60988,0 0,-12.7753 z m 0,17.74169 9.24688,0 c 1.94144,0 3.58603,0.0849 4.93318,0.24352 1.36692,0.13874 2.52221,0.45588 3.47311,0.95124 1.4065,0.73304 2.37406,1.61576 2.909,2.66571 0.5346,1.04995 0.80745,2.47548 0.80745,4.25842 0,1.56501 -0.25937,2.83651 -0.77426,3.82705 -0.51535,0.99055 -1.324,1.87094 -2.43341,2.64357 -1.04995,0.71299 -2.40402,1.21571 -4.04826,1.49321 -1.64424,0.25767 -3.75145,0.37603 -6.32684,0.37603 l -7.78685,0 0,-16.45858 z"
       style="font-style:normal;font-variant:normal;font-weight:normal;font-stretch:normal;font-size:medium;line-height:100%;font-family:'Vladimir Script';-inkscape-font-specification:'Vladimir Script, Normal';text-align:center;letter-spacing:0px;word-spacing:0px;writing-mode:lr-tb;text-anchor:middle;fill:#b23228;fill-opacity:1;stroke:none;stroke-width:0.69999999;stroke-linecap:butt;stroke-linejoin:miter;stroke-miterlimit:4;stroke-dasharray:none;stroke-opacity:1"
       inkscape:connector-curvature="0" />
    <path
       id="path4707"
       d="m 208.47634,154.0515 0,44.24349 29.15648,0 0,-5.22071 -23.27206,0 0,-16.43643 23.27206,0 0,-5.23181 -23.27206,0 0,-12.12275 23.27206,0 0,-5.2318 -29.15648,1e-5 z"
       style="font-style:normal;font-variant:normal;font-weight:normal;font-stretch:normal;font-size:medium;line-height:100%;font-family:'Vladimir Script';-inkscape-font-specification:'Vladimir Script, Normal';text-align:center;letter-spacing:0px;word-spacing:0px;writing-mode:lr-tb;text-anchor:middle;fill:#b23228;fill-opacity:1;stroke:none;stroke-width:0.69999999;stroke-linecap:butt;stroke-linejoin:miter;stroke-miterlimit:4;stroke-dasharray:none;stroke-opacity:1"
       inkscape:connector-curvature="0" />
    <path
       inkscape:connector-curvature="0"
       d="m 274.59271,167.53851 q 0,2.90611 -1.0274,5.4012 -0.998,2.46569 -2.81797,4.28567 -2.26026,2.26031 -5.34248,3.4051 -3.08222,1.11546 -7.77891,1.11546 l -5.81214,0 0,16.29157 -5.81215,0 0,-43.70835 11.85921,0 q 3.93336,0 6.66336,0.67535 2.72993,0.64547 4.84339,2.05481 2.49517,1.6732 3.84547,4.16828 1.37962,2.49517 1.37962,6.31115 z m -6.04697,0.14624 q 0,-2.26025 -0.7925,-3.93344 -0.79265,-1.6732 -2.40711,-2.73001 -1.40895,-0.90995 -3.22892,-1.29157 -1.79065,-0.41118 -4.54999,-0.41118 l -5.7534,0 0,17.46576 4.9022,0 q 3.52249,0 5.72409,-0.61638 2.2015,-0.64547 3.58122,-2.02541 1.37961,-1.40895 1.93735,-2.96476 0.58729,-1.55582 0.58729,-3.49317 z"
       id="path4624"
       style="font-style:normal;font-variant:normal;font-weight:normal;font-stretch:normal;font-size:medium;line-height:100%;font-family:'Vladimir Script';-inkscape-font-specification:'Vladimir Script, Normal';text-align:center;letter-spacing:0px;word-spacing:0px;writing-mode:lr-tb;text-anchor:middle;fill:#b23228;fill-opacity:1;stroke:none;stroke-width:0.69999999;stroke-linecap:butt;stroke-linejoin:miter;stroke-miterlimit:4;stroke-dasharray:none;stroke-opacity:1" />
    <path
       d="m 334.55176,198.03752 -4.21594,0.0629 -0.20677,-12.67647 -20.59082,0.0825 -9.37048,11.54268 -4.93876,0 33.11397,-42.45726 6.24488,-0.13838 z m -4.5441,-17.60485 0.25003,-21.70511 -16.5978,21.61336 z"
       id="path4628"
       inkscape:connector-curvature="0"
       sodipodi:nodetypes="ccccccccccccc"
       style="font-style:normal;font-variant:normal;font-weight:normal;font-stretch:normal;font-size:medium;line-height:100%;font-family:'Vladimir Script';-inkscape-font-specification:'Vladimir Script, Normal';text-align:center;letter-spacing:0px;word-spacing:0px;writing-mode:lr-tb;text-anchor:middle;fill:#b23228;fill-opacity:1;stroke:none;stroke-width:0.69999999;stroke-linecap:butt;stroke-linejoin:miter;stroke-miterlimit:4;stroke-dasharray:none;stroke-opacity:1" />
    <path
       d="m 372.00186,167.53851 q 0,2.90611 -1.02732,5.4012 -0.99809,2.46569 -2.81806,4.28567 -2.26025,2.26031 -5.34247,3.4051 -3.08222,1.11546 -7.7789,1.11546 l -5.81214,0 0,16.29157 -5.81208,0 0,-43.70835 11.85913,0 q 3.93336,0 6.66337,0.67535 2.73,0.64547 4.84339,2.05481 2.49516,1.6732 3.84546,4.16828 1.37962,2.49517 1.37962,6.31115 z m -6.04698,0.14624 q 0,-2.26025 -0.79249,-3.93344 -0.79265,-1.6732 -2.40703,-2.73001 -1.40903,-0.90995 -3.229,-1.29157 -1.79066,-0.41118 -4.5499,-0.41118 l -5.7535,0 0,17.46576 4.9022,0 q 3.52249,0 5.72409,-0.61638 2.20152,-0.64547 3.58122,-2.02541 1.37962,-1.40895 1.93736,-2.96476 0.58729,-1.55582 0.58729,-3.49317 z"
       id="path4630"
       inkscape:connector-curvature="0"
       style="font-style:normal;font-variant:normal;font-weight:normal;font-stretch:normal;font-size:medium;line-height:100%;font-family:'Vladimir Script';-inkscape-font-specification:'Vladimir Script, Normal';text-align:center;letter-spacing:0px;word-spacing:0px;writing-mode:lr-tb;text-anchor:middle;fill:#b23228;fill-opacity:1;stroke:none;stroke-width:0.69999999;stroke-linecap:butt;stroke-linejoin:miter;stroke-miterlimit:4;stroke-dasharray:none;stroke-opacity:1" />
    <path
       d="m 413.58173,198.03752 -5.78274,0 0,-35.01957 -21.72209,35.01957 -5.87088,0 0,-43.70835 5.78282,0 0,34.49117 21.45793,-34.49117 6.13496,0 0,43.70835 z"
       id="path4632"
       inkscape:connector-curvature="0"
       style="font-style:normal;font-variant:normal;font-weight:normal;font-stretch:normal;font-size:medium;line-height:100%;font-family:'Vladimir Script';-inkscape-font-specification:'Vladimir Script, Normal';text-align:center;letter-spacing:0px;word-spacing:0px;writing-mode:lr-tb;text-anchor:middle;fill:#b23228;fill-opacity:1;stroke:none;stroke-width:0.69999999;stroke-linecap:butt;stroke-linejoin:miter;stroke-miterlimit:4;stroke-dasharray:none;stroke-opacity:1" />
    <path
       sodipodi:nodetypes="cccccccc"
       inkscape:connector-curvature="0"
       id="path4628-0"
       d="m 476.25709,197.55549 -4.11458,0.0629 0.48115,-39.28165 -29.92373,38.23899 -4.82004,0 32.31819,-42.11708 6.09478,-0.13758 z"
       style="font-style:normal;font-variant:normal;font-weight:normal;font-stretch:normal;font-size:10.74628258px;line-height:100%;font-family:'Vladimir Script';-inkscape-font-specification:'Vladimir Script, Normal';text-align:center;letter-spacing:0px;word-spacing:0px;writing-mode:lr-tb;text-anchor:middle;fill:#b23228;fill-opacity:1;stroke:none;stroke-width:0.69999999;stroke-linecap:butt;stroke-linejoin:miter;stroke-miterlimit:4;stroke-dasharray:none;stroke-opacity:1" />
    <path
       sodipodi:nodetypes="cccccccc"
       inkscape:connector-curvature="0"
       id="path4628-0-8"
       d="m 511.75389,198.552 -4.21593,0.0629 0.49295,-40.15394 -30.66056,39.08824 -4.93876,0 33.11398,-43.0525 6.24487,-0.14073 z"
       style="font-style:normal;font-variant:normal;font-weight:normal;font-stretch:normal;font-size:10.74628258px;line-height:100%;font-family:'Vladimir Script';-inkscape-font-specification:'Vladimir Script, Normal';text-align:center;letter-spacing:0px;word-spacing:0px;writing-mode:lr-tb;text-anchor:middle;fill:#b23228;fill-opacity:1;stroke:none;stroke-width:0.69999999;stroke-linecap:butt;stroke-linejoin:miter;stroke-miterlimit:4;stroke-dasharray:none;stroke-opacity:1" />
    <path
       sodipodi:nodetypes="ccccccccc"
       inkscape:connector-curvature="0"
       id="path4614-7"
       d="m 424.90451,203.16653 -5.41778,-0.0841 5.69107,-7.7594 -0.7579,-41.0984 4.97217,-0.0472 0.75868,34.10656 25.92669,-33.93171 5.98826,0 z"
       style="font-style:normal;font-variant:normal;font-weight:normal;font-stretch:normal;font-size:10.74628258px;line-height:100%;font-family:'Vladimir Script';-inkscape-font-specification:'Vladimir Script, Normal';text-align:center;letter-spacing:0px;word-spacing:0px;writing-mode:lr-tb;text-anchor:middle;fill:#b23228;fill-opacity:1;stroke:none;stroke-width:0.69999999;stroke-linecap:butt;stroke-linejoin:miter;stroke-miterlimit:4;stroke-dasharray:none;stroke-opacity:1" />
    <path
       sodipodi:nodetypes="ccccccccc"
       inkscape:connector-curvature="0"
       id="path4614-7-5"
       d="m 37.213615,203.55758 -5.41779,-0.0841 5.69107,-7.75949 -0.7579,-41.0983 4.97217,-0.0472 0.75869,34.10648 25.92669,-33.9317 5.98825,0 z"
       style="font-style:normal;font-variant:normal;font-weight:normal;font-stretch:normal;font-size:10.74628258px;line-height:100%;font-family:'Vladimir Script';-inkscape-font-specification:'Vladimir Script, Normal';text-align:center;letter-spacing:0px;word-spacing:0px;writing-mode:lr-tb;text-anchor:middle;fill:#b23228;fill-opacity:1;stroke:none;stroke-width:0.69999999;stroke-linecap:butt;stroke-linejoin:miter;stroke-miterlimit:4;stroke-dasharray:none;stroke-opacity:1" />
    <g
       transform="matrix(7.8620055,0,0,7.8620055,3978.4686,2537.8187)"
       id="text4842"
       style="font-style:normal;font-variant:normal;font-weight:normal;font-stretch:normal;font-size:8.11252308px;line-height:100%;font-family:'Vladimir Script';-inkscape-font-specification:'Vladimir Script, Normal';text-align:center;letter-spacing:0px;word-spacing:0px;writing-mode:lr-tb;text-anchor:middle;fill:#b23228;fill-opacity:1;stroke:none;stroke-width:1px;stroke-linecap:butt;stroke-linejoin:miter;stroke-opacity:1">
      <path
         sodipodi:nodetypes="cccsccsccsscccsccscsssc"
         inkscape:connector-curvature="0"
         id="path4850"
         style="font-style:normal;font-variant:normal;font-weight:normal;font-stretch:normal;font-size:8.11252308px;line-height:100%;font-family:Arial;-inkscape-font-specification:'Arial, Normal';text-align:center;writing-mode:lr-tb;text-anchor:middle;fill:#b23228;fill-opacity:1"
         d="m -466.35066,-298.8985 0.51988,0.40402 c 0,0 -0.52378,0.5677 -0.94367,0.90044 -0.4524,0.29494 -0.94442,0.44945 -1.54916,0.44945 -0.62587,0 -1.13555,-0.12676 -1.52902,-0.38028 -0.39084,-0.25615 -0.68925,-0.62586 -0.89523,-1.10913 -0.20335,-0.48327 -0.30502,-1.00218 -0.30502,-1.55675 0,-0.60474 0.11488,-1.13158 0.34463,-1.58052 0.23239,-0.45157 0.56116,-0.79355 0.98633,-1.02594 0.42781,-0.23503 0.89788,-0.35255 1.41019,-0.35255 0.58097,0 1.06952,0.14788 1.46564,0.44365 0.39612,0.29577 0.67208,0.7117 0.82789,1.24778 l -0.75659,0.17825 c -0.13468,-0.42253 -0.3301,-0.73018 -0.58625,-0.92296 -0.25616,-0.19277 -0.57834,-0.28916 -0.96654,-0.28916 -0.44629,0 -0.81996,0.10695 -1.12101,0.32085 -0.29841,0.21391 -0.50836,0.50175 -0.62983,0.86354 -0.12148,0.35915 -0.18222,0.73019 -0.18222,1.1131 0,0.49383 0.0713,0.9256 0.21391,1.29531 0.14524,0.36707 0.36971,0.64172 0.6734,0.82393 0.30369,0.18221 0.63247,0.27332 0.98634,0.27332 0.43045,0 0.82692,-0.039 1.14853,-0.25634 0.49985,-0.3378 0.8878,-0.84001 0.8878,-0.84001 z" />
    </g>
  </g>
</svg>
