<?xml version="1.0" encoding="UTF-8" standalone="no"?>
<!-- Generator: Adobe Illustrator 16.0.0, SVG Export Plug-In . SVG Version: 6.00 Build 0)  -->

<svg
   xmlns:dc="http://purl.org/dc/elements/1.1/"
   xmlns:cc="http://creativecommons.org/ns#"
   xmlns:rdf="http://www.w3.org/1999/02/22-rdf-syntax-ns#"
   xmlns:svg="http://www.w3.org/2000/svg"
   xmlns="http://www.w3.org/2000/svg"
   xmlns:sodipodi="http://sodipodi.sourceforge.net/DTD/sodipodi-0.dtd"
   xmlns:inkscape="http://www.inkscape.org/namespaces/inkscape"
   version="1.1"
   id="Capa_1"
   x="0px"
   y="0px"
   width="250"
   height="150"
   viewBox="0 0 27.988281 16.792969"
   xml:space="preserve"
   inkscape:version="0.91 r13725"
   sodipodi:docname="monitor.svg"><metadata
     id="metadata67"><rdf:RDF><cc:Work
         rdf:about=""><dc:format>image/svg+xml</dc:format><dc:type
           rdf:resource="http://purl.org/dc/dcmitype/StillImage" /><dc:title /></cc:Work></rdf:RDF></metadata><defs
     id="defs65" /><sodipodi:namedview
     pagecolor="#ffffff"
     bordercolor="#666666"
     borderopacity="1"
     objecttolerance="10"
     gridtolerance="10"
     guidetolerance="10"
     inkscape:pageopacity="0"
     inkscape:pageshadow="2"
     inkscape:window-width="1600"
     inkscape:window-height="837"
     id="namedview63"
     showgrid="false"
     inkscape:zoom="5.2149125"
     inkscape:cx="51.831514"
     inkscape:cy="48.508624"
     inkscape:window-x="-8"
     inkscape:window-y="-8"
     inkscape:window-maximized="1"
     inkscape:current-layer="Capa_1" /><path
     d="m 13.681443,6.699816 c -0.01365,0.043734 -0.02694,0.089916 -0.04093,0.1305007 l 1.951212,0.4600761 1.924622,-1.0586998 -3.49e-4,-3.0749876 -2.56733,-0.4943631 -0.538796,0.2847923 c -0.0014,0.029389 -3.5e-4,0.061927 -0.0035,0.089916 -0.0021,0.024841 -0.0059,0.051431 -0.008,0.076971 L 14.970356,2.8117358 17.291029,3.27671 15.584724,4.2108569 14.287764,3.9316625 c -0.007,0.041634 -0.01364,0.086067 -0.01994,0.1231534 0.0017,0.00315 0.0035,0.007 0.0056,0.0098 l 1.19235,0.256453 0,2.7891457 -1.784326,-0.4103949 z"
     id="path7"
     inkscape:connector-curvature="0"
     style="fill:#e08caa;fill-opacity:1" /><path
     d="m 14.056501,1.4979825 8.182007,0 0,7.5148091 -8.482193,0 c 0.233711,0.1427461 0.58253,0.2998367 1.124825,0.497512 0.203972,0.074522 0.39535,0.1472943 0.575882,0.2179676 l 7.140101,0 c 0.197325,0 0.357565,-0.1598896 0.357565,-0.357215 l 0,-8.2309884 c 0,-0.19767532 -0.16024,-0.35791474 -0.357565,-0.35791474 l -9.087465,0 c 0.04898,0.0465324 0.09761,0.0937646 0.139247,0.13889749 0.166887,0.18298085 0.300537,0.37855685 0.407596,0.57693195 z"
     id="path9"
     inkscape:connector-curvature="0"
     style="fill:#5e686c;fill-opacity:1" /><path
     d="m 16.452046,10.161757 c 0.648305,0.313832 1.054151,0.589877 1.308155,0.825688 4.049369,-0.136098 6.416575,-0.60772 6.416575,-0.60772 l 0,-0.217968 -7.72473,0 z"
     id="path11"
     inkscape:connector-curvature="0"
     style="fill:#5e686c;fill-opacity:1" /><path
     d="m 19.241891,8.8039206 2.788096,0 0,-2.3710537 -2.788096,0 0,2.3710537 z m 0.23826,-2.132094 2.310876,0 0,1.8934842 -2.310876,0 0,-1.8934842 z"
     id="path13"
     inkscape:connector-curvature="0"
     style="fill:#7ff07a;fill-opacity:1" /><rect
     x="21.135374"
     y="6.8506088"
     width="0.50695837"
     height="0.10426059"
     id="rect15"
     style="fill:#d47c6d;fill-opacity:1" /><rect
     x="19.629545"
     y="6.8506088"
     width="0.25330424"
     height="0.50695837"
     id="rect17"
     style="fill:#d47c6d;fill-opacity:1" /><rect
     x="20.827141"
     y="7.4317398"
     width="0.56153774"
     height="0.18647951"
     id="rect19"
     style="fill:#d47c6d;fill-opacity:1" /><rect
     x="20.827141"
     y="7.7081347"
     width="0.56153774"
     height="0.18647951"
     id="rect21"
     style="fill:#d47c6d;fill-opacity:1" /><rect
     x="20.827141"
     y="7.9792819"
     width="0.56153774"
     height="0.18647951"
     id="rect23"
     style="fill:#d47c6d;fill-opacity:1" /><circle
     cx="20.670052"
     cy="3.5782964"
     r="0.25855225"
     id="circle25"
     style="fill:#415862" /><path
     d="m 20.232717,2.2543965 c -0.03149,-0.030788 -0.08117,-0.030788 -0.111958,0 L 19.90664,2.4688654 c -0.01505,0.014695 -0.02344,0.034637 -0.02344,0.055629 0,0.020992 0.0084,0.041284 0.02344,0.055979 l 0.214119,0.2141191 c 0.03079,0.031138 0.08047,0.031138 0.111958,0 0.01504,-0.015394 0.02274,-0.035337 0.02274,-0.055979 0,-0.019942 -0.0077,-0.040235 -0.02274,-0.055979 l -0.08012,-0.07907 0.438034,0 0,0.6185662 0.15849,0 0,-0.6182163 0.437335,0 -0.07942,0.07942 c -0.03079,0.030438 -0.03079,0.080819 0,0.1116078 0.03079,0.030788 0.08082,0.030788 0.111608,0 l 0.214119,-0.214469 c 0.01504,-0.014694 0.02274,-0.034987 0.02274,-0.055979 0,-0.020992 -0.0077,-0.040935 -0.02274,-0.055979 L 21.218644,2.2543965 c -0.03079,-0.030788 -0.08082,-0.030788 -0.111608,0 -0.01539,0.015394 -0.02239,0.035337 -0.02239,0.055979 0,0.020292 0.0073,0.040235 0.02239,0.055979 l 0.07942,0.07942 -0.437335,0 0,-0.3614134 0.07942,0.07942 c 0.03079,0.030788 0.08047,0.030788 0.111958,0 0.03079,-0.030788 0.03079,-0.081169 0,-0.1116078 L 20.72603,1.837704 c -0.01469,-0.014694 -0.03499,-0.023091 -0.05598,-0.023091 -0.02099,0 -0.04093,0.00805 -0.05598,0.023091 l -0.213769,0.214469 c -0.03079,0.030438 -0.03079,0.080819 0,0.1116078 0.01539,0.015394 0.03569,0.023091 0.05598,0.023091 0.02029,0 0.04023,-0.0077 0.05598,-0.023091 l 0.07942,-0.07942 0,0.3610635 -0.437685,0 0.07977,-0.07907 c 0.02974,-0.031138 0.02974,-0.081169 -0.001,-0.1119577 z"
     id="path27"
     inkscape:connector-curvature="0"
     style="fill:#415862" /><path
     d="m 7.8253569,4.6184528 c 0.091315,1.2234875 0.5730833,0.695887 0.6724458,1.2318843 0.2396594,1.2917117 0.7844034,1.0611489 0.7844034,1.7664823 0,0.1277017 -0.00805,0.2473565 -0.023091,0.3614133 1.2084431,-0.085018 1.9459641,-0.1151065 3.0634421,-0.058778 -0.0038,-0.062277 -0.04653,-0.1462448 -0.04653,-0.2120199 0,-0.7053334 0.545094,-0.5650364 0.784404,-1.857098 0.09971,-0.5363472 0.58113,-0.0091 0.672796,-1.2318843 0,-0.4877156 -0.262751,-0.6087698 -0.262751,-0.6087698 0,0 0.133649,-0.7214273 0.186479,-1.2766674 0.06438,-0.6923883 -0.400248,-2.4795127 -2.878012,-2.4795127 -2.477763,0 -2.9427372,1.7874743 -2.8776618,2.4795127 0.05248,0.5552401 0.1857797,1.2766674 0.1857797,1.2766674 0,0 -0.261701,0.1210542 -0.261701,0.6087698 z"
     id="path29"
     inkscape:connector-curvature="0"
     style="fill:#e0b98e;fill-opacity:1" /><path
     d="M 14.548065,9.8626204 C 13.407147,9.4469775 12.907536,9.1457414 12.629741,8.6300363 12.601751,8.5782559 12.575861,8.5236765 12.55207,8.4673478 11.446838,8.4414576 10.165272,8.4243141 9.0705361,8.5705588 9.0428966,8.617791 9.0124581,8.6629239 8.9792207,8.7073571 8.6447471,9.1534385 8.0317788,9.4910608 7.0115645,9.8633201 5.2597767,10.501129 4.1223567,11.151883 4.1223567,11.595865 c 0,0.443982 0,1.973254 0,1.973254 l 13.3149163,0 c 0,0 0,-1.529971 0,-1.973254 0,-0.444682 -1.13777,-1.095086 -2.889208,-1.7332446 z"
     id="path31"
     inkscape:connector-curvature="0"
     style="fill:#336e7b;fill-opacity:1" /><g
     id="g33"
     transform="translate(0,-40.52703)" /><g
     id="g35"
     transform="translate(0,-40.52703)" /><g
     id="g37"
     transform="translate(0,-40.52703)" /><g
     id="g39"
     transform="translate(0,-40.52703)" /><g
     id="g41"
     transform="translate(0,-40.52703)" /><g
     id="g43"
     transform="translate(0,-40.52703)" /><g
     id="g45"
     transform="translate(0,-40.52703)" /><g
     id="g47"
     transform="translate(0,-40.52703)" /><g
     id="g49"
     transform="translate(0,-40.52703)" /><g
     id="g51"
     transform="translate(0,-40.52703)" /><g
     id="g53"
     transform="translate(0,-40.52703)" /><g
     id="g55"
     transform="translate(0,-40.52703)" /><g
     id="g57"
     transform="translate(0,-40.52703)" /><g
     id="g59"
     transform="translate(0,-40.52703)" /><g
     id="g61"
     transform="translate(0,-40.52703)" /></svg>