<?xml version="1.0" encoding="UTF-8" standalone="no"?>
<!-- Generator: Adobe Illustrator 16.0.0, SVG Export Plug-In . SVG Version: 6.00 Build 0)  -->

<svg
   xmlns:dc="http://purl.org/dc/elements/1.1/"
   xmlns:cc="http://creativecommons.org/ns#"
   xmlns:rdf="http://www.w3.org/1999/02/22-rdf-syntax-ns#"
   xmlns:svg="http://www.w3.org/2000/svg"
   xmlns="http://www.w3.org/2000/svg"
   xmlns:sodipodi="http://sodipodi.sourceforge.net/DTD/sodipodi-0.dtd"
   xmlns:inkscape="http://www.inkscape.org/namespaces/inkscape"
   version="1.1"
   id="Capa_1"
   x="0px"
   y="0px"
   width="250"
   height="150"
   viewBox="0 0 391.00098 234.60059"
   xml:space="preserve"
   inkscape:version="0.91 r13725"
   sodipodi:docname="sign.svg"><metadata
     id="metadata45"><rdf:RDF><cc:Work
         rdf:about=""><dc:format>image/svg+xml</dc:format><dc:type
           rdf:resource="http://purl.org/dc/dcmitype/StillImage" /><dc:title /></cc:Work></rdf:RDF></metadata><defs
     id="defs43"><clipPath
       clipPathUnits="userSpaceOnUse"
       id="clipPath4206"><path
         sodipodi:nodetypes="cc"
         inkscape:connector-curvature="0"
         id="path4208"
         d="m 232.53216,262.85398 129.44356,51.35269 124.61899,1.84498 15.02305,-23.19952 53.56575,-36.00604 109.52041,-87.37992 -68.56414,-26.7952 -193.87111,52.8023 -172.59259,-48.07373 z"
         style="fill:none;fill-rule:evenodd;stroke:#000000;stroke-width:0.15640041;stroke-linecap:butt;stroke-linejoin:miter;stroke-miterlimit:4;stroke-dasharray:none;stroke-opacity:1" /></clipPath></defs><sodipodi:namedview
     pagecolor="#ffffff"
     bordercolor="#666666"
     borderopacity="1"
     objecttolerance="10"
     gridtolerance="10"
     guidetolerance="10"
     inkscape:pageopacity="0"
     inkscape:pageshadow="2"
     inkscape:window-width="1600"
     inkscape:window-height="837"
     id="namedview41"
     showgrid="false"
     inkscape:zoom="5.6568542"
     inkscape:cx="64.191709"
     inkscape:cy="55.790185"
     inkscape:window-x="-8"
     inkscape:window-y="-8"
     inkscape:window-maximized="1"
     inkscape:current-layer="Capa_1" /><g
     style="fill:#e69797;fill-opacity:1"
     id="g5"
     transform="matrix(0.24806749,0,0,0.24806749,92.387211,0.58006189)"><path
       style="fill:#336e7b;fill-opacity:1"
       inkscape:connector-curvature="0"
       id="path7"
       d="m 195.806,112.326 20.839,-1.763 2.969,3.08 -17.883,4.248 -2.604,7.708 c -0.006,0.011 -40.396,84.444 -34.46,125.749 0,0 25.208,15.036 50.405,0 l 6.7,-112.947 0,-9.391 37.508,-8.462 -2.649,6.524 -27.964,9.095 12.936,4.624 158.78,48.862 L 559.17,140.791 666.525,102.39 400.382,0 134.244,102.39 l 56.728,20.282 4.834,-10.346 z m 0,126.948 -5.937,0 c 0,0 2.969,-30.823 11.861,-62.848 l -5.924,62.848 z" /><path
       style="fill:#b72667;fill-opacity:0.81388015"
       d="M 146.89648 41.271484 C 145.78329 42.532471 144.47797 43.544203 143.07227 44.425781 C 141.66422 45.308827 140.15537 46.061763 138.63672 46.806641 L 138.60352 46.828125 C 138.61332 46.824647 138.62693 46.823797 138.63672 46.820312 C 150.58675 51.187336 156.95312 61.87174 156.95312 74.773438 C 156.95312 89.747381 149.92523 96.91596 144.32422 96.783203 C 140.67776 96.654411 139.76537 93.140501 141.06836 85.453125 L 144.97656 61.361328 C 141.71981 59.539052 135.20694 58.105469 129.48047 58.105469 C 110.72715 58.105469 99.003906 72.563056 99.003906 88.447266 C 99.003906 99.123657 105.12295 105.375 113.5918 105.375 C 120.49453 105.375 126.3524 101.99222 130.39062 95.349609 L 130.65039 95.349609 C 131.2972 102.25361 135.72926 105.375 141.84766 105.375 C 155.9153 105.375 166.5918 93.3973 166.5918 74.386719 C 166.59148 59.493865 158.9793 47.452747 146.89648 41.271484 z M 127.39453 68.398438 C 129.08881 68.398438 130.39142 68.657272 131.42969 68.914062 L 129.60547 81.285156 C 128.43508 88.839617 123.35522 94.957031 118.53711 94.957031 C 114.23956 94.957031 112.02539 91.834465 112.02539 86.888672 C 112.02539 76.860839 118.79721 68.398438 127.39453 68.398438 z "
       id="path4182"
       transform="matrix(6.3047518,0,0,6.3047518,-372.42773,-2.3383229)" /><path
       style="fill:#b72667;fill-opacity:0.81568629"
       d="M 101.01172 44.044922 C 101.0134 44.046124 101.01394 44.047626 101.01562 44.048828 C 86.912453 52.918329 78.560547 68.880386 78.560547 86.361328 C 78.560547 111.8916 97.57174 127.38086 119.1875 127.38086 C 128.43465 127.38086 135.20495 126.21298 143.01953 122.69531 L 140.67773 115.14844 C 135.46595 117.8767 128.43553 119.3125 121.79102 119.3125 C 102.39422 119.3125 88.455078 106.93908 88.455078 85.189453 C 88.455078 67.016969 97.791252 53.811807 110.58398 48 C 110.58576 48.000415 110.58806 47.999585 110.58984 48 C 108.86152 47.632903 107.18493 47.150826 105.58203 46.507812 C 103.97913 45.864799 102.44991 45.060847 101.01562 44.046875 L 101.01172 44.044922 z "
       id="path4180"
       transform="matrix(6.3047518,0,0,6.3047518,-372.42773,-2.3383229)" /><path
       style="fill:#336e7b;fill-opacity:1"
       d="M 101.01172 44.044922 L 101.01562 44.046875 C 102.44991 45.060847 103.97913 45.864799 105.58203 46.507812 C 107.18493 47.150826 108.86152 47.632903 110.58984 48 C 110.59113 48.0003 110.59246 48.001653 110.59375 48.001953 C 114.1592 48.832535 118.24306 49.306641 122.58398 49.306641 C 128.67013 49.306641 134.24868 48.373873 138.60352 46.828125 L 138.63672 46.806641 C 140.15537 46.061763 141.66422 45.308827 143.07227 44.425781 C 144.47797 43.544203 145.78329 42.532471 146.89648 41.271484 C 146.89568 41.271073 146.89534 41.269943 146.89453 41.269531 C 147.45125 40.376395 147.77734 39.440081 147.77734 38.46875 C 147.77734 38.422594 147.76267 38.374439 147.76172 38.328125 L 147.76172 25.525391 L 122.57617 33.273438 L 97.392578 25.525391 L 97.392578 33.148438 L 97.392578 38.466797 C 97.392578 40.508672 98.729059 42.413462 101.01172 44.044922 z "
       id="path9"
       transform="matrix(6.3047518,0,0,6.3047518,-372.42773,-2.3383229)" /></g><g
     id="g11"
     transform="translate(0,-566.16944)" /><g
     id="g13"
     transform="translate(0,-566.16944)" /><g
     id="g15"
     transform="translate(0,-566.16944)" /><g
     id="g17"
     transform="translate(0,-566.16944)" /><g
     id="g19"
     transform="translate(0,-566.16944)" /><g
     id="g21"
     transform="translate(0,-566.16944)" /><g
     id="g23"
     transform="translate(0,-566.16944)" /><g
     id="g25"
     transform="translate(0,-566.16944)" /><g
     id="g27"
     transform="translate(0,-566.16944)" /><g
     id="g29"
     transform="translate(0,-566.16944)" /><g
     id="g31"
     transform="translate(0,-566.16944)" /><g
     id="g33"
     transform="translate(0,-566.16944)" /><g
     id="g35"
     transform="translate(0,-566.16944)" /><g
     id="g37"
     transform="translate(0,-566.16944)" /><g
     id="g39"
     transform="translate(0,-566.16944)" /></svg>